# xmcd
#
# Track frame offsets:
#	150
#	9583
#	20179
#	31946
#	43098
#	55274
#	66003
#	78678
#	89319
#	103384
#	115137
#	124776
#	136744
#	145858
#	156382
#	165580
#	175112
#	185299
#	195975
#	204903
#	217331
#	221501
#	234565
#	245947
#	256458
#	267386
#	278973
#	290507
#	301439
#	312677
#
# Disc length: 4324 seconds
#
# Revision: 1
# Processed by: cddbd v1.5.1PL0 Copyright (c) Steve Scherf et al.
# Submitted via: audiograbber 1.82.02
#
DISCID=ce10e21e
DTITLE=Hank Snow - The Hank Snow Collection CD 3
DYEAR=1900
DGENRE=Country
TTITLE0=Breakfast With The Blues
TTITLE1=Trial Of Achen Hearts
TTITLE2=Let Me Go Lover
TTITLE3=Tangled Mind
TTITLE4=The Next Voice You Hear
TTITLE5=Stolen Moments
TTITLE6=The Gal Who Invented Kissin'
TTITLE7=The Gold Rush Is Over
TTITLE8=Faded Petal
TTITLE9=A Letter From Vietnam
TTITLE10=Poor Little Jimmy
TTITLE11=Begger To A Kind
TTITLE12=The Countdown
TTITLE13=Down At The Pawn Shop
TTITLE14=I Know
TTITLE15=You Take The Future
TTITLE16=Dog Bone
TTITLE17=If I Try Hard Enough
TTITLE18=You Loosing Your Baby
TTITLE19=Poison Love
TTITLE20=Ledgend in My Time
TTITLE21=Bury Me Deep
TTITLE22=Fraulien
TTITLE23=Manision On The Hill
TTITLE24=Send Me The Pillow That You Dream On
TTITLE25=Faded Rose
TTITLE26=Return To Me
TTITLE27=That Heart Belongs To Me
TTITLE28=I'll Go Alone
TTITLE29=I Care No More
EXTD=
EXTT0=
EXTT1=
EXTT2=
EXTT3=
EXTT4=
EXTT5=
EXTT6=
EXTT7=
EXTT8=
EXTT9=
EXTT10=
EXTT11=
EXTT12=
EXTT13=
EXTT14=
EXTT15=
EXTT16=
EXTT17=
EXTT18=
EXTT19=
EXTT20=
EXTT21=
EXTT22=
EXTT23=
EXTT24=
EXTT25=
EXTT26=
EXTT27=
EXTT28=
EXTT29=
PLAYORDER=
